<svg width="106" height="24" fill="none" xmlns="http://www.w3.org/2000/svg"><path d="m12.59 22.232-1.641-1.737a6.847 6.847 0 0 1-.604.498 3.507 3.507 0 0 1-4.397-.392 3.496 3.496 0 0 1-.54-4.375l.795-1.208 2.5-3.814c.346-.532.468-1.18.339-1.801a2.341 2.341 0 0 0-1.06-1.504l-4.608 7.034-.053.085-.222.392a5.901 5.901 0 0 0 6.41 8.475 5.743 5.743 0 0 0 2.118-.922c.307-.17.604-.424.964-.73z" fill="#F8B9B6"/><path d="M3.183 15.918 4.328 13.8c-.149-.095-.52-.307-.657-.423a3.517 3.517 0 0 1-.996-4.312c.368-.726.98-1.3 1.727-1.621a3.56 3.56 0 0 1 2.341-.223l1.398.382 4.386 1.186a2.405 2.405 0 0 0 2.946-1.674L7.368 4.911h-.095l-.445-.096a5.9 5.9 0 0 0-6.07 8.719 5.806 5.806 0 0 0 1.536 1.79c.285.215.582.413.89.594z" fill="#F8B9B6"/><path d="m6.287 5.027 2.363.435a6.59 6.59 0 0 1 .2-.753 3.538 3.538 0 0 1 1.495-1.811 3.506 3.506 0 0 1 5.297 2.776l.074 1.44.222 4.545c.035.635.317 1.232.784 1.663a2.416 2.416 0 0 0 1.727.615l-.424-8.401v-.54a5.902 5.902 0 0 0-10.17-3.094 6.007 6.007 0 0 0-1.229 2.024 8.889 8.889 0 0 0-.339 1.101z" fill="#F8B9B6"/><path d="m17.613 4.604.317 2.383h.774a3.517 3.517 0 0 1 3.327 2.894c.14.792 0 1.607-.393 2.308a3.528 3.528 0 0 1-1.748 1.557l-1.345.52-4.238 1.62a2.585 2.585 0 0 0-.794.498 2.267 2.267 0 0 0-.54.763c-.128.284-.2.59-.213.9a2.29 2.29 0 0 0 .16.922l7.86-2.987h.095c.142-.055.28-.119.414-.191a5.922 5.922 0 0 0 1.97-1.61 5.816 5.816 0 0 0 1.06-2.289 5.922 5.922 0 0 0-3.274-6.738 5.848 5.848 0 0 0-2.288-.54c-.286-.074-.668-.053-1.145-.01z" fill="#F8B9B6"/><path d="m21.5 15.24-2.118 1.06c.063.158.243.55.286.72a3.46 3.46 0 0 1-.149 2.33 3.506 3.506 0 0 1-1.589 1.727c-.71.38-1.53.5-2.32.34a3.507 3.507 0 0 1-2.023-1.198l-.912-1.123-2.85-3.538a2.374 2.374 0 0 0-1.61-.88 2.395 2.395 0 0 0-1.758.52l5.297 6.547.063.074c.096.117.202.223.308.329a5.902 5.902 0 0 0 9.852-5.827 9.572 9.572 0 0 1-.477-1.08z" fill="#F8B9B6"/><path d="M31.374 18.196v2.118h-1.06V4.424h1.06v8.475a4.386 4.386 0 0 1 3.962-2.553c2.66 0 4.482 2.012 4.482 5.063 0 3.052-1.865 5.297-4.577 5.297a4.354 4.354 0 0 1-3.899-2.51h.032zm7.31-2.734c0-2.468-1.367-4.025-3.528-4.025a3.92 3.92 0 0 0-3.814 4.174 3.802 3.802 0 0 0 3.772 4.057c2.119 0 3.58-1.631 3.57-4.237v.032zm8.496.075a5.17 5.17 0 1 1 5.17 5.17 5.063 5.063 0 0 1-5.17-5.17zm9.154 0a3.995 3.995 0 1 0-3.984 4.121 3.983 3.983 0 0 0 3.963-4.121h.02zm3.04 3.062.88-.583h.085a3.071 3.071 0 0 0 2.796 1.695c1.325 0 2.278-.689 2.278-1.674s-.455-1.377-2.383-2.119c-2.639-.974-3.295-1.78-3.295-3.072 0-1.293 1.26-2.532 3.178-2.532a3.443 3.443 0 0 1 3.295 2.013l-.763.519h-.127a2.616 2.616 0 0 0-2.469-1.536c-1.186 0-1.991.667-1.991 1.536s.392 1.282 2.616 2.119c2.225.837 3.051 1.642 3.051 3.02 0 1.376-1.43 2.658-3.443 2.658a3.973 3.973 0 0 1-3.708-2.044zm8.921 0 .858-.583h.085a3.071 3.071 0 0 0 2.796 1.695c1.325 0 2.278-.689 2.278-1.674s-.455-1.377-2.383-2.119c-2.639-.974-3.285-1.78-3.285-3.072 0-1.293 1.25-2.532 3.178-2.532a3.443 3.443 0 0 1 3.295 2.013l-.763.519h-.127a2.616 2.616 0 0 0-2.468-1.536c-1.197 0-1.992.667-1.992 1.536s.392 1.282 2.617 2.119c2.225.837 3.051 1.642 3.051 3.02 0 1.376-1.43 2.658-3.443 2.658a3.951 3.951 0 0 1-3.697-2.044zm9.089-3.062a5.17 5.17 0 1 1 5.17 5.17 5.052 5.052 0 0 1-5.17-5.17zm9.154 0a3.994 3.994 0 1 0-7.988 0 4.036 4.036 0 0 0 4.004 4.121 3.994 3.994 0 0 0 3.984-4.121zm19.122-1.166v5.922h-1.06v-5.297c0-2.447-.889-3.528-2.616-3.528s-3.253 1.802-3.253 4.005v4.863h-1.06v-5.297c0-2.448-.878-3.528-2.605-3.528-1.727 0-3.231 1.8-3.231 4.004v4.863h-1.06v-9.535h1.06v2.12a4.014 4.014 0 0 1 3.57-2.512 3.02 3.02 0 0 1 3.178 2.776 4.235 4.235 0 0 1 3.772-2.776c2.023-.042 3.305 1.293 3.305 3.92zm-59.528 5.075h-.064a1.864 1.864 0 0 1-1.737.053 1.707 1.707 0 0 1-.572-1.525V4.403h-1.112v13.772a2.468 2.468 0 0 0 .89 2.119 2.26 2.26 0 0 0 1.25.35 3.97 3.97 0 0 0 1.398-.287l-.053-.91z" fill="#fff"/></svg>