<svg width="26" height="25" fill="none" xmlns="http://www.w3.org/2000/svg"><rect y=".022" width="24" height="24" rx="12" transform="rotate(-.052 0 .022)" fill="url(#a)" fill-opacity=".8"/><g clip-path="url(#b)" fill="#FEF4DE" fill-opacity=".8"><path d="M11.443 10.316c.442.804-.544 1.054-1.007 1.1-.702.071-.847-.347-.71-.874a.952.952 0 0 1 .284-.485.898.898 0 0 1 .503-.229.95.95 0 0 1 .533.105.994.994 0 0 1 .397.383zM14.196 8.825c-.51 4.063 6.402 3.211 6.273 6.445.681-.92.972-3.414-1.036-4.696-1.79-1.144-4.12-.515-5.237-1.75zM18.176 7.29c-.045-.044-.092-.086-.137-.129.046.044.091.089.137.128z"/><path d="m19.785 10.249-.004-.006a2.716 2.716 0 0 0-.213-.344 1.714 1.714 0 0 0-.948-.663 3.92 3.92 0 0 0-.772-.125c-.264-.02-.533-.03-.805-.045-.545-.031-1.104-.088-1.65-.249a4.485 4.485 0 0 1-.808-.319 3.458 3.458 0 0 1-.707-.53c-.42-.405-.75-.864-1.082-1.309a15.375 15.375 0 0 0-1.003-1.284 4.595 4.595 0 0 0-1.228-.992 4.13 4.13 0 0 0-1.529-.45 3.497 3.497 0 0 1 1.633.204 4.302 4.302 0 0 1 1.417.93c.267.26.517.536.75.828 1.732-.355 3.136-.042 4.216.566l.025.012a5.32 5.32 0 0 1 1.097.818c.23.219.444.454.64.706l.016.02c.638.836.954 1.705.955 2.232zM19.785 10.249l-.005-.008.005.008zM9.124 4.455c.442.066.893.248 1.184.595.29.347.398.8.482 1.23.069.333.123.672.25.988.061.154.152.289.227.434.062.121.175.23.219.359a.119.119 0 0 1-.013.114c-.154.177-.57-.019-.727-.098a2.376 2.376 0 0 1-.716-.564c-.63-.724-.956-1.765-.937-2.714.005-.115.015-.23.031-.344zM16.521 12.614c-.952 2.76 3.38 4.607 1.76 7.414 1.663-.713 2.452-2.865 1.76-4.57-.606-1.498-2.393-2.042-3.52-2.845zM10.799 16.226c.26-.203.544-.37.845-.499a4.81 4.81 0 0 1 .945-.283c.641-.127 1.276-.159 1.81-.382.263-.106.505-.262.714-.46a1.82 1.82 0 0 0 .452-.706c.097-.284.136-.586.115-.887a3.347 3.347 0 0 0-.21-.94c.238.255.411.568.505.91.093.341.104.702.03 1.049a2.062 2.062 0 0 1-.519.971c-.254.26-.56.458-.896.58a3.668 3.668 0 0 1-.996.213c-.327.029-.644.037-.955.056a5.972 5.972 0 0 0-1.84.378zM16.91 21.072c-.097.08-.193.163-.298.237a2.51 2.51 0 0 1-.334.192c-.24.122-.505.184-.773.182-.725-.013-1.238-.572-1.539-1.204-.205-.43-.346-.896-.59-1.306-.347-.587-.941-1.059-1.637-.97-.283.037-.549.169-.706.424-.414.667.182 1.599.94 1.466a.677.677 0 0 0 .355-.16.837.837 0 0 0 .263-.786.606.606 0 0 0-.244-.376c.146.07.26.197.317.353a1.014 1.014 0 0 1-.172.98.958.958 0 0 1-.204.18 1.158 1.158 0 0 1-.774.176 1.395 1.395 0 0 1-.688-.309c-.235-.192-.41-.443-.622-.659a2.958 2.958 0 0 0-.848-.64 3.073 3.073 0 0 0-.682-.218 4.367 4.367 0 0 0-.356-.059c-.055-.006-.322-.067-.36-.03.369-.353.77-.665 1.2-.934.44-.271.913-.482 1.406-.625a3.88 3.88 0 0 1 1.574-.127c.272.034.538.105.792.212.265.11.51.266.724.462.212.206.383.453.504.727.11.256.19.524.243.798.156.822.1 2.095 1.139 2.282.054.01.109.019.164.024l.17.004c.116-.009.232-.026.346-.052a3.64 3.64 0 0 0 .69-.244zM10.875 20.182l-.027-.022.027.022zM9.933 8.59c-.038.15-.104.292-.194.416-.168.226-.391.403-.646.513-.23.102-.472.169-.72.197-.054.007-.11.01-.164.015a.721.721 0 0 0-.431.167.766.766 0 0 0-.252.399 1.983 1.983 0 0 0-.042.238c-.024.208-.028.424-.05.685a4.166 4.166 0 0 1-.366 1.28c-.246.539-.523.973-.458 1.593.043.402.242.672.507.95.477.505 1.546.73 1.309 1.977-.144.743-1.333 1.525-3.006 1.8.166-.027-.214-.69-.238-.733-.18-.29-.376-.564-.52-.88-.28-.612-.41-1.32-.295-1.991.12-.707.624-1.248 1.042-1.788.499-.643 1.022-1.484 1.137-2.318.027-.202.046-.455.09-.706.04-.279.125-.549.248-.8.084-.165.195-.313.328-.439a.451.451 0 0 0 .081-.534L4.623 3.664l3.835 4.894a.48.48 0 0 0 .364.186.462.462 0 0 0 .37-.17.342.342 0 0 0 .01-.424c-.25-.331-.515-.669-.772-1l-.965-1.236-1.937-2.466L2.885.021l2.89 3.206 2.061 2.357 1.029 1.182c.341.397.682.782 1.024 1.2l.056.07.012.11a1.34 1.34 0 0 1-.024.444z"/><path d="M10.826 20.149a2.613 2.613 0 0 1-.49-.516c.15.185.314.357.49.516z"/></g><defs><linearGradient id="a" x1="-.027" y1="12.022" x2="44" y2="12.022" gradientUnits="userSpaceOnUse"><stop stop-color="#FAC758"/><stop offset=".33" stop-color="#FFA254"/><stop offset=".66" stop-color="#F86E38"/><stop offset="1" stop-color="#F7513E"/></linearGradient><clipPath id="b"><path fill="#fff" transform="rotate(-.052 25.5 -1108.229)" d="M0 0h24v24H0z"/></clipPath></defs></svg>